<?xml version="1.0" standalone="no"?>
<!DOCTYPE svg PUBLIC "-//W3C//DTD SVG 20010904//EN"
 "http://www.w3.org/TR/2001/REC-SVG-20010904/DTD/svg10.dtd">
<svg version="1.0" xmlns="http://www.w3.org/2000/svg"
 width="813.000000pt" height="723.000000pt" viewBox="0 0 813.000000 723.000000"
 preserveAspectRatio="xMidYMid meet">
<metadata>
Created by potrace 1.16, written by Peter Selinger 2001-2019
</metadata>
<g transform="translate(0.000000,723.000000) scale(0.100000,-0.100000)"
fill="#000000" stroke="none">
<path d="M3929 6173 c-141 -237 -839 -1413 -894 -1508 -153 -265 -160 -280
-132 -291 7 -2 233 31 503 75 269 43 490 78 492 76 6 -6 -55 -111 -427 -738
-399 -673 -439 -743 -428 -753 4 -4 220 28 481 70 261 43 481 76 489 74 11 -2
-2 -34 -50 -123 -36 -66 -172 -326 -303 -577 -130 -252 -241 -454 -245 -450
-5 4 -5 2 -2 -4 4 -6 -73 -155 -169 -330 -284 -515 -336 -615 -330 -630 3 -8
19 -14 35 -14 26 0 44 20 188 211 87 116 174 233 193 259 19 27 410 555 868
1174 458 619 831 1130 828 1135 -19 31 -127 14 -565 -88 -197 -46 -190 -45
-169 -28 14 10 133 195 557 862 45 72 136 213 202 315 192 297 220 342 210
336 -5 -4 -220 -29 -478 -56 -257 -28 -474 -52 -481 -55 -16 -6 -21 -16 198
355 86 146 223 380 305 520 81 140 156 270 167 288 l20 32 -490 0 -490 0 -83
-137z m969 65 c-8 -13 -162 -270 -342 -573 -180 -302 -339 -559 -352 -570 -25
-22 -31 -40 -14 -50 5 -3 219 18 475 46 256 29 468 49 471 46 4 -3 -784 -1259
-911 -1452 -27 -41 9 -38 362 35 191 39 354 73 362 76 10 3 11 1 4 -8 -5 -7
-430 -578 -943 -1268 -513 -690 -939 -1262 -947 -1270 -8 -8 -6 1 5 20 71 127
1022 1920 1022 1927 0 5 -6 17 -13 27 -12 17 -39 13 -486 -64 -260 -44 -474
-80 -475 -78 -4 5 831 1420 866 1470 31 44 2 41 -512 -42 -276 -45 -503 -80
-505 -78 -2 2 365 628 956 1626 l119 202 436 0 436 0 -14 -22z"/>
<path d="M3700 6134 c-130 -20 -345 -75 -465 -118 -140 -52 -382 -173 -500
-252 -502 -334 -865 -843 -1010 -1419 -55 -218 -69 -342 -69 -590 0 -245 13
-364 65 -574 45 -183 91 -308 179 -486 236 -480 597 -844 1077 -1087 120 -61
145 -71 153 -58 5 8 10 20 9 25 0 6 -62 40 -137 77 -545 267 -984 770 -1176
1348 -88 265 -121 467 -121 755 0 289 33 494 121 755 112 331 292 624 540 880
377 388 826 616 1373 698 96 14 116 20 129 40 14 22 14 22 -29 21 -24 -1 -87
-7 -139 -15z"/>
<path d="M3700 6034 c-474 -73 -907 -289 -1256 -627 -371 -358 -600 -806 -681
-1327 -24 -158 -24 -490 0 -650 76 -497 285 -921 627 -1273 209 -217 425 -371
682 -491 l94 -44 102 192 c56 106 102 196 102 200 0 5 -15 -3 -34 -18 -29 -22
-41 -25 -78 -20 -63 9 -125 43 -173 96 -48 53 -62 92 -44 115 7 8 31 24 53 35
62 31 146 90 201 141 l50 46 -65 1 c-257 1 -398 65 -455 205 l-24 60 -83 12
c-194 28 -321 86 -425 195 -107 111 -154 239 -158 428 -2 69 -8 141 -14 160
-20 65 -24 181 -8 256 28 132 113 266 212 334 35 24 46 40 69 104 76 207 303
410 564 501 l52 19 392 660 c215 364 398 671 406 684 17 26 24 26 -108 6z"/>
<path d="M4845 5999 c-4 -11 -5 -21 -3 -23 1 -1 41 -17 88 -35 47 -18 139 -61
206 -96 674 -348 1132 -991 1251 -1755 24 -160 24 -509 -1 -670 -121 -783
-594 -1434 -1291 -1775 -171 -84 -300 -132 -471 -174 -207 -52 -325 -66 -569
-65 -245 0 -364 14 -573 65 -119 30 -124 30 -137 13 -18 -25 -16 -26 135 -63
212 -52 330 -65 575 -65 236 0 355 13 555 60 255 60 556 189 770 332 578 386
950 975 1057 1672 24 160 24 510 0 670 -81 528 -313 993 -679 1360 -177 178
-372 321 -592 436 -109 57 -286 134 -307 134 -4 0 -11 -9 -14 -21z"/>
<path d="M4583 5548 c-122 -210 -221 -383 -220 -384 4 -4 928 96 937 101 36
22 1 -46 -130 -250 -82 -129 -150 -237 -150 -240 0 -3 20 -30 44 -59 24 -30
61 -90 83 -135 35 -73 41 -80 73 -86 478 -85 741 -308 800 -678 16 -95 8 -293
-15 -387 -71 -293 -323 -487 -707 -544 -118 -18 -414 -21 -517 -6 l-64 9 -62
-67 c-102 -109 -224 -171 -382 -194 l-92 -13 -395 -535 -395 -535 62 -17 c34
-10 109 -27 167 -38 1006 -189 2017 311 2480 1225 279 550 325 1176 131 1763
-118 356 -288 630 -560 903 -232 231 -445 376 -731 497 -52 22 -104 43 -115
46 -18 5 -48 -41 -242 -376z"/>
<path d="M4977 4711 c-16 -27 -16 -28 25 -82 57 -75 112 -197 143 -314 14 -54
26 -100 28 -101 1 -1 14 0 30 3 33 6 34 22 8 117 l-19 68 67 -7 c36 -4 100
-16 141 -26 253 -63 456 -265 520 -515 44 -170 13 -387 -78 -552 -44 -80 -155
-182 -253 -230 -173 -86 -427 -123 -700 -103 -78 6 -144 13 -146 15 -3 3 5 31
17 63 28 73 37 214 20 298 l-12 59 -27 -33 c-26 -31 -27 -37 -18 -87 21 -125
-44 -304 -152 -413 -61 -63 -165 -119 -259 -141 -38 -9 -59 -20 -77 -44 -31
-39 -22 -42 76 -22 141 29 303 131 371 234 15 22 18 23 99 12 121 -15 398 -12
509 5 376 58 604 234 685 530 24 91 31 292 12 390 -37 195 -133 346 -287 452
-125 85 -307 151 -490 177 -42 6 -46 9 -64 53 -22 52 -104 179 -133 205 -18
17 -20 16 -36 -11z"/>
<path d="M2883 4601 c-203 -97 -358 -234 -431 -382 -23 -46 -44 -97 -48 -114
-4 -21 -22 -42 -61 -70 -176 -127 -253 -367 -188 -582 10 -33 13 -70 9 -118
-7 -92 16 -209 61 -304 62 -129 182 -227 345 -279 72 -23 174 -42 233 -42 35
0 37 -2 37 -30 0 -17 11 -52 25 -79 56 -112 152 -150 405 -160 l145 -6 -65
-66 c-68 -68 -165 -141 -237 -179 -28 -14 -43 -29 -43 -41 0 -27 74 -97 125
-120 60 -26 101 -22 162 18 40 26 59 48 86 98 35 66 37 76 8 51 -56 -49 -195
-136 -218 -136 -29 0 -93 38 -93 55 0 6 40 36 88 68 189 124 293 262 292 386
-1 72 -65 172 -134 208 -27 14 -31 14 -43 -3 -20 -28 -16 -39 25 -68 21 -14
48 -44 60 -65 22 -40 30 -115 13 -126 -6 -3 -52 -8 -104 -12 -236 -15 -427 57
-427 162 0 18 -6 35 -12 37 -7 3 14 8 47 11 81 9 135 25 135 41 0 6 -6 20 -13
30 -11 15 -18 16 -62 6 -64 -14 -236 -14 -316 0 -241 44 -405 183 -449 382
-18 80 -8 238 19 308 59 151 188 243 395 279 33 6 114 11 181 11 134 0 207
-10 305 -42 66 -22 177 -29 232 -15 17 5 35 22 50 50 l25 44 -41 -15 c-67 -23
-155 -27 -219 -8 -31 9 -57 20 -57 25 0 4 12 18 26 32 81 74 70 226 -23 337
l-28 34 -22 -24 -22 -23 33 -50 c61 -92 69 -163 25 -219 -43 -54 -67 -60 -274
-60 -212 -1 -272 -12 -402 -71 -85 -39 -172 -116 -214 -190 l-29 -50 0 80 c0
197 93 361 236 415 50 19 73 21 147 17 86 -4 87 -4 93 20 10 40 -9 48 -112 48
l-95 0 6 25 c30 119 191 279 395 390 49 27 70 46 88 78 13 23 20 42 15 42 -4
0 -45 -18 -90 -39z"/>
<path d="M4896 4261 c-10 -11 -15 -25 -11 -32 4 -6 11 -28 16 -48 18 -80 -36
-174 -129 -228 -26 -15 -49 -28 -51 -29 -2 -2 2 -17 9 -33 l12 -30 42 20 c22
12 63 39 89 61 43 36 51 39 86 33 62 -10 153 -59 190 -100 79 -91 106 -199
105 -432 l0 -173 33 0 33 0 2 83 c1 45 1 121 -1 170 -2 48 -2 87 0 87 2 0 28
-9 57 -20 95 -36 191 -21 249 42 27 29 69 121 77 171 7 37 7 37 -27 37 -32 0
-35 -3 -42 -37 -13 -70 -56 -134 -103 -155 -38 -17 -50 -18 -92 -8 -27 6 -69
24 -93 40 -36 23 -47 37 -61 81 -25 76 -57 128 -111 178 -48 44 -127 85 -188
96 -34 7 -35 8 -26 38 14 49 10 129 -9 166 -21 42 -33 47 -56 22z"/>
<path d="M2745 3387 c-15 -23 -15 -27 4 -58 47 -76 12 -167 -94 -249 -53 -41
-54 -42 -38 -66 8 -13 19 -24 23 -24 15 0 87 59 125 102 37 41 46 46 109 57
39 7 96 11 128 10 56 -2 60 -1 78 28 l18 31 -66 6 c-37 3 -95 2 -129 -2 l-63
-8 0 42 c0 43 -44 144 -67 151 -6 2 -19 -7 -28 -20z"/>
<path d="M3390 3053 c-14 -2 -30 -6 -36 -7 -13 -5 165 -190 230 -240 27 -21
75 -50 106 -66 l57 -29 15 31 14 31 -70 36 c-55 27 -94 59 -177 143 -58 59
-108 107 -110 107 -2 -1 -15 -4 -29 -6z"/>
</g>
</svg>
